<?xml version="1.0" encoding="UTF-8"?>
<svg width="375" height="812" viewBox="0 0 375 812" xmlns="http://www.w3.org/2000/svg" xmlns:xlink="http://www.w3.org/1999/xlink">
<defs>
  <style>
    text { font-family: -apple-system, 'SF Pro Display', Arial, sans-serif; }
    .glass { fill: rgba(255,255,255,0.12); stroke: rgba(255,255,255,0.22); stroke-width: 1; }
  </style>
  <filter id="blur4"><feGaussianBlur stdDeviation="4"/></filter>
  <clipPath id="screen"><rect width="375" height="812"/></clipPath>
</defs>
<g clip-path="url(#screen)">

<rect width="375" height="812" fill="#1a2e1a"/>
<line x1="0" y1="0" x2="375" y2="0" stroke="#2a4a2a" stroke-width="0.8"/><line x1="0" y1="80" x2="375" y2="80" stroke="#2a4a2a" stroke-width="0.8"/><line x1="0" y1="160" x2="375" y2="160" stroke="#2a4a2a" stroke-width="0.8"/><line x1="0" y1="240" x2="375" y2="240" stroke="#2a4a2a" stroke-width="0.8"/><line x1="0" y1="320" x2="375" y2="320" stroke="#2a4a2a" stroke-width="0.8"/><line x1="0" y1="400" x2="375" y2="400" stroke="#2a4a2a" stroke-width="0.8"/><line x1="0" y1="480" x2="375" y2="480" stroke="#2a4a2a" stroke-width="0.8"/><line x1="0" y1="560" x2="375" y2="560" stroke="#2a4a2a" stroke-width="0.8"/><line x1="0" y1="640" x2="375" y2="640" stroke="#2a4a2a" stroke-width="0.8"/><line x1="0" y1="720" x2="375" y2="720" stroke="#2a4a2a" stroke-width="0.8"/><line x1="0" y1="800" x2="375" y2="800" stroke="#2a4a2a" stroke-width="0.8"/><line x1="0" y1="880" x2="375" y2="880" stroke="#2a4a2a" stroke-width="0.8"/><line x1="0" y1="0" x2="0" y2="812" stroke="#2a4a2a" stroke-width="0.8"/><line x1="80" y1="0" x2="80" y2="812" stroke="#2a4a2a" stroke-width="0.8"/><line x1="160" y1="0" x2="160" y2="812" stroke="#2a4a2a" stroke-width="0.8"/><line x1="240" y1="0" x2="240" y2="812" stroke="#2a4a2a" stroke-width="0.8"/><line x1="320" y1="0" x2="320" y2="812" stroke="#2a4a2a" stroke-width="0.8"/><line x1="400" y1="0" x2="400" y2="812" stroke="#2a4a2a" stroke-width="0.8"/>
<path d="M0 300 Q187 260 375 290" stroke="#2d5a2d" stroke-width="6" fill="none"/><path d="M0 480 Q187 460 375 475" stroke="#2d5a2d" stroke-width="4" fill="none"/><path d="M120 0 Q130 406 110 812" stroke="#2d5a2d" stroke-width="4" fill="none"/><path d="M260 0 Q250 406 265 812" stroke="#2d5a2d" stroke-width="3" fill="none"/><circle cx="187" cy="450" r="80" fill="none" stroke="#97C459" stroke-width="0.8" opacity="0.3"/><circle cx="187" cy="450" r="140" fill="none" stroke="#97C459" stroke-width="0.5" opacity="0.2"/>

<rect x="0" y="0" width="375" height="44" fill="rgba(0,0,0,0.3)"/>
<rect x="150" y="8" width="75" height="28" rx="14" fill="rgba(0,0,0,0.6)"/>
<text x="20" y="30" font-size="13" font-weight="700" fill="#ffffff">9:41</text>
<text x="355" y="30" font-size="12" fill="#ffffff" text-anchor="end">●●● 100%</text><rect x="0" y="44" width="375" height="52" rx="0" fill="rgba(255,255,255,0.15)" stroke="rgba(255,255,255,0.22)" stroke-width="1"/><text x="187" y="76" font-size="17" font-weight="700" fill="#ffffff" text-anchor="middle">Guía de limpieza</text><text x="187" y="92" font-size="11" font-weight="normal" fill="rgba(255,255,255,0.7)" text-anchor="middle">Botella PET · Plástico 1</text><rect x="16" y="106" width="343" height="90" rx="16" fill="rgba(255,255,255,0.12)" stroke="rgba(255,255,255,0.22)" stroke-width="1"/><text x="187" y="155" font-size="42" font-weight="normal" fill="#ffffff" text-anchor="middle">🍾</text><text x="187" y="177" font-size="13" font-weight="700" fill="#ffffff" text-anchor="middle">Botella PET (Plástico 1)</text><rect x="107" y="182" width="160" height="22" rx="8" fill="rgba(151,196,89,0.2)" stroke="#97C459" stroke-width="1"/><text x="187" y="197" font-size="10" font-weight="700" fill="#97C459" text-anchor="middle">50–80 ecopesos/kg</text><rect x="16" y="208" width="343" height="250" rx="16" fill="rgba(255,255,255,0.12)" stroke="rgba(255,255,255,0.22)" stroke-width="1"/><text x="30" y="232" font-size="13" font-weight="700" fill="#97C459" text-anchor="start">Cómo limpiarla ✅</text><circle cx="48" cy="252" r="12" fill="#1B6B3A"/><text x="48" y="257" font-size="11" font-weight="700" fill="#ffffff" text-anchor="middle">1</text><text x="70" y="257" font-size="11" font-weight="normal" fill="#ffffff" text-anchor="start">Vacía completamente el contenido</text><circle cx="48" cy="290" r="12" fill="#1B6B3A"/><text x="48" y="295" font-size="11" font-weight="700" fill="#ffffff" text-anchor="middle">2</text><text x="70" y="295" font-size="11" font-weight="normal" fill="#ffffff" text-anchor="start">Enjuaga con agua fría (sin jabón)</text><circle cx="48" cy="328" r="12" fill="#1B6B3A"/><text x="48" y="333" font-size="11" font-weight="700" fill="#ffffff" text-anchor="middle">3</text><text x="70" y="333" font-size="11" font-weight="normal" fill="#ffffff" text-anchor="start">Retira la tapa y guárdala aparte</text><circle cx="48" cy="366" r="12" fill="#1B6B3A"/><text x="48" y="371" font-size="11" font-weight="700" fill="#ffffff" text-anchor="middle">4</text><text x="70" y="371" font-size="11" font-weight="normal" fill="#ffffff" text-anchor="start">Aplasta para reducir volumen</text><circle cx="48" cy="404" r="12" fill="#1B6B3A"/><text x="48" y="409" font-size="11" font-weight="700" fill="#ffffff" text-anchor="middle">5</text><text x="70" y="409" font-size="11" font-weight="normal" fill="#ffffff" text-anchor="start">Deja secar antes de entregar</text><rect x="16" y="466" width="343" height="68" rx="14" fill="rgba(163,45,45,0.25)" stroke="rgba(163,45,45,0.5)" stroke-width="1"/><text x="30" y="490" font-size="12" font-weight="700" fill="#EF9595" text-anchor="start">La rechazamos si... ❌</text><text x="30" y="510" font-size="11" font-weight="normal" fill="rgba(239,149,149,0.9)" text-anchor="start">✗  Tiene residuos de alimento adentro</text><text x="30" y="528" font-size="11" font-weight="normal" fill="rgba(239,149,149,0.9)" text-anchor="start">✗  Contaminada con aceite o químicos</text><rect x="16" y="544" width="343" height="56" rx="14" fill="rgba(255,255,255,0.08)" stroke="rgba(255,255,255,0.22)" stroke-width="1"/><text x="30" y="566" font-size="10" font-weight="normal" fill="rgba(255,255,255,0.7)" text-anchor="start">💡 Reciclar 1 kg de PET ahorra 1.5 kg de CO₂,</text><text x="30" y="582" font-size="10" font-weight="normal" fill="rgba(255,255,255,0.7)" text-anchor="start">equivalente a 6 km en auto sin emisiones.</text><rect x="0" y="740" width="375" height="72" fill="rgba(10,30,10,0.92)"/><line x1="0" y1="740" x2="375" y2="740" stroke="rgba(255,255,255,0.12)" stroke-width="1"/><text x="37" y="767" font-size="20" text-anchor="middle" fill="rgba(255,255,255,0.45)">⌂</text><text x="37" y="790" font-size="9" text-anchor="middle" fill="rgba(255,255,255,0.45)" font-weight="400">Inicio</text><text x="112" y="767" font-size="20" text-anchor="middle" fill="rgba(255,255,255,0.45)">⊞</text><text x="112" y="790" font-size="9" text-anchor="middle" fill="rgba(255,255,255,0.45)" font-weight="400">Escanear</text><text x="187" y="767" font-size="20" text-anchor="middle" fill="rgba(255,255,255,0.45)">⊕</text><text x="187" y="790" font-size="9" text-anchor="middle" fill="rgba(255,255,255,0.45)" font-weight="400">Mapa</text><text x="262" y="767" font-size="20" text-anchor="middle" fill="rgba(255,255,255,0.45)">⊟</text><text x="262" y="790" font-size="9" text-anchor="middle" fill="rgba(255,255,255,0.45)" font-weight="400">Billetera</text><text x="337" y="767" font-size="20" text-anchor="middle" fill="#97C459">⊙</text><text x="337" y="790" font-size="9" text-anchor="middle" fill="#97C459" font-weight="700">Perfil</text>
</g>
</svg>