<?xml version="1.0" encoding="UTF-8"?>
<svg width="375" height="812" viewBox="0 0 375 812" xmlns="http://www.w3.org/2000/svg">
<defs><style>text{font-family:-apple-system,'SF Pro Display',Arial,sans-serif;dominant-baseline:auto}</style></defs>
<rect width="375" height="812" fill="#F4F7F2"/>
<rect x="0" y="0" width="375" height="44" fill="#1B6B3A"/>
<text x="20" y="30" font-size="12" font-weight="600" fill="#FFFFFF">9:41</text>
<text x="355" y="30" font-size="11" fill="#FFFFFF" text-anchor="end">●●● 100%</text>
<rect x="127" y="8" width="120" height="28" rx="14" fill="#1a1a1a"/>
<rect x="0" y="44" width="375" height="56" fill="#1B6B3A"/>

<text x="187" y="72" font-size="18" font-weight="700" fill="#FFFFFF" text-anchor="middle">Panel Administrador</text>
<text x="187" y="90" font-size="13" fill="#C0DD97" text-anchor="middle">MPACKING v3.0</text>
<rect x="16" y="110" width="343" height="90" rx="12" fill="#1B6B3A" stroke="#C0DD97" stroke-width="0.5"/>
<text x="30" y="132" font-size="11" font-weight="normal" fill="#C0DD97" text-anchor="start">Resumen del sistema</text>
<text x="30" y="162" font-size="30" font-weight="800" fill="#FFFFFF">1,847</text>
<text x="30" y="180" font-size="11" font-weight="normal" fill="#97C459" text-anchor="start">usuarios activos</text>
<text x="345" y="180" font-size="11" font-weight="normal" fill="#97C459" text-anchor="end">↑ 23 nuevos hoy</text>
<text x="345" y="162" font-size="30" font-weight="800" fill="#FFFFFF" text-anchor="end">342</text>

<rect x="16" y="212" width="167" height="72" rx="12" fill="#FFFFFF" stroke="#C0DD97" stroke-width="0.5"/>
<text x="26" y="232" font-size="11" font-weight="normal" fill="#9E9E9E" text-anchor="start">QR escaneados</text>
<text x="26" y="256" font-size="22" font-weight="700" fill="#27500A" text-anchor="start">2,341</text>
<text x="26" y="272" font-size="10" font-weight="normal" fill="#9E9E9E" text-anchor="start">hoy</text>
<rect x="191" y="212" width="167" height="72" rx="12" fill="#FFFFFF" stroke="#C0DD97" stroke-width="0.5"/>
<text x="201" y="232" font-size="11" font-weight="normal" fill="#9E9E9E" text-anchor="start">Ecopesos otorgados</text>
<text x="201" y="256" font-size="22" font-weight="700" fill="#27500A" text-anchor="start">48,920</text>
<text x="201" y="272" font-size="10" font-weight="normal" fill="#9E9E9E" text-anchor="start">esta semana</text>

<rect x="16" y="296" width="343" height="72" rx="12" fill="#FFFFFF" stroke="#C0DD97" stroke-width="0.5"/>
<text x="30" y="316" font-size="11" font-weight="normal" fill="#9E9E9E" text-anchor="start">Materiales reciclados</text>
<text x="30" y="340" font-size="22" font-weight="700" fill="#27500A" text-anchor="start">1,284 kg</text>
<rect x="30" y="352" width="315" height="6" rx="3" fill="#EAF3DE"/><rect x="30" y="352" width="214" height="6" rx="3" fill="#1B6B3A"/>

<rect x="16" y="380" width="343" height="180" rx="12" fill="#FFFFFF" stroke="#C0DD97" stroke-width="0.5"/>
<text x="30" y="402" font-size="13" font-weight="700" fill="#173404" text-anchor="start">Alertas recientes</text>
<line x1="16" y1="416" x2="359" y2="416" stroke="#EAF3DE" stroke-width="1"/>
<rect x="30" y="424" width="58" height="22" rx="6" fill="#FCEBEB"/><text x="59" y="439" font-size="11" font-weight="700" fill="#A32D2D" text-anchor="middle">FRAUDE</text>
<text x="86" y="439" font-size="11" font-weight="normal" fill="#333" text-anchor="start">Usuario ID#4821 - 12 escaneos/hora</text>
<rect x="30" y="456" width="44" height="22" rx="6" fill="#EAF3DE"/><text x="52" y="471" font-size="11" font-weight="700" fill="#3B6D11" text-anchor="middle">INFO</text>
<text x="86" y="471" font-size="11" font-weight="normal" fill="#333" text-anchor="start">Nuevo restaurante registrado</text>
<rect x="30" y="488" width="58" height="22" rx="6" fill="#FCEBEB"/><text x="59" y="503" font-size="11" font-weight="700" fill="#A32D2D" text-anchor="middle">FRAUDE</text>
<text x="86" y="503" font-size="11" font-weight="normal" fill="#333" text-anchor="start">QR duplicado detectado - zona Norte</text>
<rect x="30" y="520" width="30" height="22" rx="6" fill="#D4EDDA"/><text x="45" y="535" font-size="11" font-weight="700" fill="#155724" text-anchor="middle">OK</text>
<text x="86" y="535" font-size="11" font-weight="normal" fill="#333" text-anchor="start">Reporte mensual generado</text>

<rect x="16" y="572" width="343" height="56" rx="12" fill="#EAF3DE" stroke="#C0DD97" stroke-width="0.5"/>
<text x="30" y="594" font-size="12" font-weight="700" fill="#27500A" text-anchor="start">CO₂ evitado este mes</text>
<text x="345" y="594" font-size="14" font-weight="700" fill="#1B6B3A" text-anchor="end">2,847 kg</text>
<rect x="30" y="602" width="315" height="6" rx="3" fill="#EAF3DE"/><rect x="30" y="602" width="223" height="6" rx="3" fill="#1B6B3A"/>
<rect x="0" y="736" width="375" height="76" fill="#FFFFFF"/>
<line x1="0" y1="736" x2="375" y2="736" stroke="#C0DD97" stroke-width="0.5"/>
<text x="46" y="760" font-size="22" text-anchor="middle" fill="#1B6B3A">🏠</text><text x="46" y="782" font-size="10" text-anchor="middle" fill="#1B6B3A" font-weight="700">Inicio</text><text x="139" y="760" font-size="22" text-anchor="middle" fill="#9E9E9E">👥</text><text x="139" y="782" font-size="10" text-anchor="middle" fill="#9E9E9E" font-weight="400">Usuarios</text><text x="232" y="760" font-size="22" text-anchor="middle" fill="#9E9E9E">📊</text><text x="232" y="782" font-size="10" text-anchor="middle" fill="#9E9E9E" font-weight="400">Reportes</text><text x="325" y="760" font-size="22" text-anchor="middle" fill="#9E9E9E">⚙️</text><text x="325" y="782" font-size="10" text-anchor="middle" fill="#9E9E9E" font-weight="400">Config</text>
</svg>